<svg width="19" height="24" viewBox="0 0 19 24" fill="none" xmlns="http://www.w3.org/2000/svg">
<g opacity="0.3">
<path opacity="0.3" d="M15.516 5.47121C14.9087 5.47062 14.3264 5.22908 13.8969 4.79962C13.4674 4.37016 13.2259 3.78786 13.2253 3.18051V2.06466e-07H2.99056C2.59789 -0.000145714 2.20903 0.0770575 1.8462 0.227226C1.48338 0.377394 1.1537 0.59758 0.875991 0.875191C0.598277 1.1528 0.377976 1.4824 0.227673 1.84517C0.07737 2.20794 -2.71128e-08 2.59676 0 2.98944V21.0105C-2.71127e-08 21.4032 0.07737 21.7921 0.227673 22.1548C0.377976 22.5176 0.598277 22.8472 0.875991 23.1248C1.1537 23.4024 1.48338 23.6226 1.8462 23.7727C2.20903 23.9229 2.59789 24.0001 2.99056 24H15.2772C15.6698 24 16.0585 23.9227 16.4212 23.7724C16.7839 23.6222 17.1134 23.402 17.391 23.1244C17.6686 22.8468 17.8888 22.5173 18.0391 22.1546C18.1893 21.7919 18.2666 21.4031 18.2666 21.0105V5.47121H15.516Z" fill="#2575FC"/>
</g>
<path d="M18.2666 5.47121H15.516C14.9087 5.47062 14.3264 5.22908 13.8969 4.79962C13.4675 4.37016 13.2259 3.78786 13.2253 3.18051V0L18.2666 5.47121Z" fill="#2575FC"/>
<path d="M14.5084 9.30161H3.03938C2.92919 9.30161 2.82352 9.25783 2.7456 9.17992C2.66768 9.102 2.6239 8.99632 2.6239 8.88613C2.62376 8.83148 2.6344 8.77733 2.65521 8.72679C2.67603 8.67626 2.70661 8.63032 2.7452 8.59162C2.7838 8.55292 2.82965 8.52223 2.88014 8.50128C2.93062 8.48033 2.98473 8.46954 3.03938 8.46954H14.5084C14.6189 8.46954 14.7248 8.51344 14.8029 8.59156C14.8811 8.66969 14.925 8.77565 14.925 8.88613C14.9247 8.99643 14.8806 9.10211 14.8026 9.18C14.7245 9.25788 14.6187 9.30161 14.5084 9.30161V9.30161Z" fill="#2575FC"/>
<path d="M14.5084 11.7867H3.03938C2.92919 11.7867 2.82352 11.7429 2.7456 11.665C2.66768 11.5871 2.6239 11.4814 2.6239 11.3712C2.62376 11.3166 2.6344 11.2624 2.65521 11.2119C2.67603 11.1614 2.70661 11.1154 2.7452 11.0767C2.7838 11.038 2.82965 11.0073 2.88014 10.9864C2.93062 10.9654 2.98473 10.9547 3.03938 10.9547H14.5084C14.6189 10.9547 14.7248 10.9985 14.8029 11.0766C14.8811 11.1548 14.925 11.2608 14.925 11.3712C14.9247 11.4815 14.8806 11.5872 14.8026 11.6651C14.7245 11.743 14.6187 11.7867 14.5084 11.7867V11.7867Z" fill="#2575FC"/>
<path d="M14.5084 14.2718H3.03938C2.98473 14.2718 2.93062 14.261 2.88014 14.2401C2.82965 14.2191 2.7838 14.1884 2.7452 14.1498C2.70661 14.1111 2.67603 14.0651 2.65521 14.0146C2.6344 13.964 2.62376 13.9099 2.6239 13.8552C2.6239 13.745 2.66768 13.6394 2.7456 13.5615C2.82352 13.4835 2.92919 13.4398 3.03938 13.4398H14.5084C14.6187 13.4398 14.7245 13.4835 14.8026 13.5614C14.8806 13.6393 14.9247 13.7449 14.925 13.8552C14.925 13.9657 14.8811 14.0717 14.8029 14.1498C14.7248 14.2279 14.6189 14.2718 14.5084 14.2718Z" fill="#2575FC"/>
<path d="M9.98476 16.7569H3.03938C2.98473 16.7569 2.93062 16.7461 2.88014 16.7252C2.82965 16.7043 2.7838 16.6735 2.7452 16.6348C2.70661 16.5961 2.67603 16.5502 2.65521 16.4997C2.6344 16.4491 2.62376 16.395 2.6239 16.3403C2.6239 16.2302 2.66768 16.1245 2.7456 16.0465C2.82352 15.9686 2.92919 15.9249 3.03938 15.9249H9.98476C10.095 15.9249 10.2006 15.9686 10.2786 16.0465C10.3565 16.1245 10.4002 16.2302 10.4002 16.3403C10.4004 16.395 10.3898 16.4491 10.3689 16.4997C10.3481 16.5502 10.3175 16.5961 10.279 16.6348C10.2404 16.6735 10.1945 16.7043 10.144 16.7252C10.0935 16.7461 10.0394 16.7569 9.98476 16.7569Z" fill="#2575FC"/>
</svg>
