<svg width="22" height="27" viewBox="0 0 22 27" fill="none" xmlns="http://www.w3.org/2000/svg">
    <path
        d="M15.5158 8.72121H15.516H18.0166V24.0105C18.0166 24.3703 17.9458 24.7265 17.8081 25.0589C17.6704 25.3913 17.4686 25.6932 17.2143 25.9476C16.9599 26.202 16.6579 26.4038 16.3255 26.5415C15.9931 26.6791 15.6369 26.75 15.2772 26.75H2.99056H2.99047C2.63064 26.7501 2.2743 26.6794 1.94181 26.5417C1.60932 26.4041 1.30722 26.2024 1.05273 25.948C0.798245 25.6936 0.596368 25.3916 0.458634 25.0591C0.3209 24.7267 0.25 24.3704 0.25 24.0105V5.98944C0.25 5.62961 0.320899 5.2733 0.458634 4.94086C0.596368 4.60843 0.798245 4.30639 1.05273 4.052C1.30723 3.7976 1.60933 3.59583 1.94181 3.45822C2.27429 3.32061 2.63063 3.24987 2.99047 3.25H2.99056H12.9753V6.18051V6.18075C12.976 6.85432 13.2438 7.50011 13.7201 7.9764C14.1964 8.45268 14.8422 8.72056 15.5158 8.72121Z"
        fill="#2575FC" fill-opacity="0.2" stroke="#0072FF" stroke-width="0.5" />
    <g filter="url(#filter0_d_102_2)">
        <path
            d="M18.2666 8.47121H15.516C14.9087 8.47062 14.3264 8.22908 13.8969 7.79962C13.4675 7.37016 13.2259 6.78786 13.2253 6.18051V3L18.2666 8.47121Z"
            fill="#2575FC" />
    </g>
    <path
        d="M14.5084 12.3016H3.03938C2.92919 12.3016 2.82352 12.2578 2.7456 12.1799C2.66768 12.102 2.6239 11.9963 2.6239 11.8861C2.62376 11.8315 2.6344 11.7773 2.65521 11.7268C2.67603 11.6763 2.70661 11.6303 2.7452 11.5916C2.7838 11.5529 2.82965 11.5222 2.88014 11.5013C2.93062 11.4803 2.98473 11.4695 3.03938 11.4695H14.5084C14.6189 11.4695 14.7248 11.5134 14.8029 11.5916C14.8811 11.6697 14.925 11.7756 14.925 11.8861C14.9247 11.9964 14.8806 12.1021 14.8026 12.18C14.7245 12.2579 14.6187 12.3016 14.5084 12.3016V12.3016Z"
        fill="#2575FC" />
    <path
        d="M14.5084 14.7867H3.03938C2.92919 14.7867 2.82352 14.7429 2.7456 14.665C2.66768 14.5871 2.6239 14.4814 2.6239 14.3712C2.62376 14.3166 2.6344 14.2624 2.65521 14.2119C2.67603 14.1614 2.70661 14.1154 2.7452 14.0767C2.7838 14.038 2.82965 14.0073 2.88014 13.9864C2.93062 13.9654 2.98473 13.9547 3.03938 13.9547H14.5084C14.6189 13.9547 14.7248 13.9985 14.8029 14.0766C14.8811 14.1548 14.925 14.2608 14.925 14.3712C14.9247 14.4815 14.8806 14.5872 14.8026 14.6651C14.7245 14.743 14.6187 14.7867 14.5084 14.7867V14.7867Z"
        fill="#2575FC" />
    <path
        d="M6.3 21.192C6.596 21.192 6.85467 21.2507 7.076 21.368C7.29733 21.4853 7.468 21.6507 7.588 21.864C7.71067 22.0747 7.772 22.3187 7.772 22.596C7.772 22.8707 7.71067 23.1147 7.588 23.328C7.468 23.5413 7.296 23.7067 7.072 23.824C6.85067 23.9413 6.59333 24 6.3 24H5.248V21.192H6.3ZM6.256 23.408C6.51467 23.408 6.716 23.3373 6.86 23.196C7.004 23.0547 7.076 22.8547 7.076 22.596C7.076 22.3373 7.004 22.136 6.86 21.992C6.716 21.848 6.51467 21.776 6.256 21.776H5.932V23.408H6.256ZM9.48225 24.028C9.21825 24.028 8.97558 23.9667 8.75425 23.844C8.53558 23.7213 8.36092 23.5507 8.23025 23.332C8.10225 23.1107 8.03825 22.8627 8.03825 22.588C8.03825 22.3133 8.10225 22.0667 8.23025 21.848C8.36092 21.6293 8.53558 21.4587 8.75425 21.336C8.97558 21.2133 9.21825 21.152 9.48225 21.152C9.74625 21.152 9.98758 21.2133 10.2063 21.336C10.4276 21.4587 10.6009 21.6293 10.7263 21.848C10.8543 22.0667 10.9183 22.3133 10.9183 22.588C10.9183 22.8627 10.8543 23.1107 10.7263 23.332C10.5983 23.5507 10.4249 23.7213 10.2063 23.844C9.98758 23.9667 9.74625 24.028 9.48225 24.028ZM9.48225 23.404C9.70625 23.404 9.88492 23.3293 10.0182 23.18C10.1543 23.0307 10.2223 22.8333 10.2223 22.588C10.2223 22.34 10.1543 22.1427 10.0182 21.996C9.88492 21.8467 9.70625 21.772 9.48225 21.772C9.25558 21.772 9.07425 21.8453 8.93825 21.992C8.80492 22.1387 8.73825 22.3373 8.73825 22.588C8.73825 22.836 8.80492 23.0347 8.93825 23.184C9.07425 23.3307 9.25558 23.404 9.48225 23.404ZM11.1828 22.592C11.1828 22.3147 11.2428 22.068 11.3628 21.852C11.4828 21.6333 11.6494 21.464 11.8628 21.344C12.0788 21.2213 12.3228 21.16 12.5948 21.16C12.9281 21.16 13.2134 21.248 13.4508 21.424C13.6881 21.6 13.8468 21.84 13.9268 22.144H13.1748C13.1188 22.0267 13.0388 21.9373 12.9348 21.876C12.8334 21.8147 12.7174 21.784 12.5868 21.784C12.3761 21.784 12.2054 21.8573 12.0748 22.004C11.9441 22.1507 11.8788 22.3467 11.8788 22.592C11.8788 22.8373 11.9441 23.0333 12.0748 23.18C12.2054 23.3267 12.3761 23.4 12.5868 23.4C12.7174 23.4 12.8334 23.3693 12.9348 23.308C13.0388 23.2467 13.1188 23.1573 13.1748 23.04H13.9268C13.8468 23.344 13.6881 23.584 13.4508 23.76C13.2134 23.9333 12.9281 24.02 12.5948 24.02C12.3228 24.02 12.0788 23.96 11.8628 23.84C11.6494 23.7173 11.4828 23.548 11.3628 23.332C11.2428 23.116 11.1828 22.8693 11.1828 22.592ZM15.3617 24.028C15.1563 24.028 14.9723 23.9947 14.8097 23.928C14.647 23.8613 14.5163 23.7627 14.4177 23.632C14.3217 23.5013 14.271 23.344 14.2657 23.16H14.9937C15.0043 23.264 15.0403 23.344 15.1017 23.4C15.163 23.4533 15.243 23.48 15.3417 23.48C15.443 23.48 15.523 23.4573 15.5817 23.412C15.6403 23.364 15.6697 23.2987 15.6697 23.216C15.6697 23.1467 15.6457 23.0893 15.5977 23.044C15.5523 22.9987 15.495 22.9613 15.4257 22.932C15.359 22.9027 15.263 22.8693 15.1377 22.832C14.9563 22.776 14.8083 22.72 14.6937 22.664C14.579 22.608 14.4803 22.5253 14.3977 22.416C14.315 22.3067 14.2737 22.164 14.2737 21.988C14.2737 21.7267 14.3683 21.5227 14.5577 21.376C14.747 21.2267 14.9937 21.152 15.2977 21.152C15.607 21.152 15.8563 21.2267 16.0457 21.376C16.235 21.5227 16.3363 21.728 16.3497 21.992H15.6097C15.6043 21.9013 15.571 21.8307 15.5097 21.78C15.4483 21.7267 15.3697 21.7 15.2737 21.7C15.191 21.7 15.1243 21.7227 15.0737 21.768C15.023 21.8107 14.9977 21.8733 14.9977 21.956C14.9977 22.0467 15.0403 22.1173 15.1257 22.168C15.211 22.2187 15.3443 22.2733 15.5257 22.332C15.707 22.3933 15.8537 22.452 15.9657 22.508C16.0803 22.564 16.179 22.6453 16.2617 22.752C16.3443 22.8587 16.3857 22.996 16.3857 23.164C16.3857 23.324 16.3443 23.4693 16.2617 23.6C16.1817 23.7307 16.0643 23.8347 15.9097 23.912C15.755 23.9893 15.5723 24.028 15.3617 24.028Z"
        fill="#8AA7CA" />
    <path
        d="M9.98476 17.2718H3.03938C2.98473 17.2718 2.93062 17.261 2.88014 17.2401C2.82965 17.2191 2.7838 17.1884 2.7452 17.1497C2.70661 17.111 2.67603 17.0651 2.65521 17.0145C2.6344 16.964 2.62376 16.9099 2.6239 16.8552C2.6239 16.745 2.66768 16.6393 2.7456 16.5614C2.82352 16.4835 2.92919 16.4397 3.03938 16.4397H9.98476C10.095 16.4397 10.2006 16.4835 10.2786 16.5614C10.3565 16.6393 10.4002 16.745 10.4002 16.8552C10.4004 16.9099 10.3898 16.964 10.3689 17.0145C10.3481 17.0651 10.3175 17.111 10.279 17.1497C10.2404 17.1884 10.1945 17.2191 10.144 17.2401C10.0935 17.261 10.0394 17.2718 9.98476 17.2718Z"
        fill="#2575FC" />
    <defs>
        <filter id="filter0_d_102_2" x="8.22534" y="0" width="13.0413" height="13.4712" filterUnits="userSpaceOnUse"
            color-interpolation-filters="sRGB">
            <feFlood flood-opacity="0" result="BackgroundImageFix" />
            <feColorMatrix in="SourceAlpha" type="matrix" values="0 0 0 0 0 0 0 0 0 0 0 0 0 0 0 0 0 0 127 0"
                result="hardAlpha" />
            <feOffset dx="-1" dy="1" />
            <feGaussianBlur stdDeviation="2" />
            <feComposite in2="hardAlpha" operator="out" />
            <feColorMatrix type="matrix" values="0 0 0 0 0.389565 0 0 0 0 0.522755 0 0 0 0 0.68749 0 0 0 1 0" />
            <feBlend mode="normal" in2="BackgroundImageFix" result="effect1_dropShadow_102_2" />
            <feBlend mode="normal" in="SourceGraphic" in2="effect1_dropShadow_102_2" result="shape" />
        </filter>
    </defs>
</svg>